<?xml version="1.0" encoding="UTF-8"?>
<svg version="1.1" viewBox="0 0 782 267.13" xml:space="preserve"
	xmlns="http://www.w3.org/2000/svg"
	xmlns:cc="http://creativecommons.org/ns#"
	xmlns:dc="http://purl.org/dc/elements/1.1/"
	xmlns:rdf="http://www.w3.org/1999/02/22-rdf-syntax-ns#">
	<metadata>
		<rdf:RDF>
			<cc:Work rdf:about="">
				<dc:format>image/svg+xml</dc:format>
				<dc:type rdf:resource="http://purl.org/dc/dcmitype/StillImage"/>
				<dc:title/>
			</cc:Work>
		</rdf:RDF>
	</metadata>
	<g transform="matrix(1.3333 0 0 -1.3333 0 267.13)">
		<g transform="scale(.1)">
			<path d="m4203.6 556.52v-206.01h227.42c-34.78-81.621-107.02-123.09-215.38-123.09-84.29 0-151.17 25.418-198 74.918-46.81 49.488-69.56 111.04-69.56 183.27 0 74.93 24.09 136.46 70.9 184.62 46.83 48.161 108.37 72.25 181.94 72.25 90.97 0 167.22-38.8 204.68-97.671l203.34 116.39c-41.46 65.551-97.64 117.72-171.23 156.52-72.23 38.793-152.51 58.859-239.46 58.859-137.79 0-254.18-46.816-347.82-141.81-93.65-94.981-140.47-210.03-140.47-347.82 0-137.78 46.82-252.83 140.47-346.48 94.98-93.649 215.38-140.47 361.2-140.47 137.79 0 248.83 42.809 334.44 127.09 86.96 85.621 129.77 196.66 129.77 334.45v94.981h-472.24" fill="#3246e6"/>
			<path d="m3199.4 20.07h239.46v936.44h-239.46v-936.44" fill="#3246e6"/>
			<path d="m2532.8 525.75h-132.44v210.03h132.44c58.86 0 100.34-42.812 100.34-105.67 0-62.879-41.48-105.7-100.34-104.36zm180.6-159.2c97.66 54.847 159.2 153.85 159.2 266.22 0 93.64-32.11 171.24-97.66 231.44-64.21 61.527-144.48 92.301-239.46 92.301h-374.58v-936.44h239.46v302.33h85.62l163.21-302.33h256.85l-192.64 346.48" fill="#3246e6"/>
			<path d="m5721.9 140.47c94.98 94.98 143.15 210.04 143.15 347.83 0 137.78-48.17 252.83-143.15 346.47-94.99 94.98-210.04 141.81-347.83 141.81-137.78 0-254.17-46.828-349.16-141.81-94.98-93.641-141.81-208.69-141.81-346.47 0-137.79 46.83-252.85 141.81-347.83 94.99-93.649 211.38-140.46 349.16-140.46 137.79 0 252.84 46.809 347.83 140.46m-528.42 164.55c-48.17 48.152-72.25 109.7-72.25 183.28 0 73.57 24.08 135.11 72.25 181.93 48.15 48.161 108.35 72.239 180.59 72.239 72.25 0 132.45-24.078 180.61-72.239 48.16-46.82 72.23-108.36 72.23-181.93 0-73.582-24.07-135.13-72.23-183.28-48.16-46.829-108.36-70.899-180.61-70.899-72.24 0-132.44 24.07-180.59 70.899" fill="#3246e6"/>
			<path d="m1008.4 956.52v-231.43h322.64v-705.02h239.47v705.02h322.64v231.43h-884.75" fill="#3246e6"/>
			<path d="m1005.2 1500.9c0-277.58-225.02-502.61-502.6-502.61-277.58 0-502.61 225.03-502.61 502.61 0 277.57 225.03 502.6 502.61 502.6 277.58 0 502.6-225.03 502.6-502.6" fill="#3246e6"/>
			<path d="m779.67 1530.6c20.066 20.07 30.25 44.38 30.25 73.5 0 29.13-10.184 53.44-30.25 73.22-20.074 20.08-44.387 29.98-73.5 29.98-29.129 0-53.723-9.9-73.789-29.98-20.074-19.78-29.969-44.09-29.969-73.22 0-29.12 9.895-53.43 29.969-73.5 20.066-19.78 44.66-29.68 73.789-29.68 29.113 0 53.426 9.9 73.5 29.68m-111.67 34.77c-10.176 10.18-15.27 23.19-15.27 38.73 0 15.55 5.094 28.56 15.27 38.45 10.176 10.18 22.902 15.27 38.172 15.27 15.262 0 27.98-5.09 38.164-15.27 10.176-9.89 15.262-22.9 15.262-38.45 0-15.54-5.086-28.55-15.262-38.73-10.184-9.89-22.902-14.98-38.164-14.98-15.27 0-27.996 5.09-38.172 14.98" fill="#fff"/>
			<path d="m206.43 1703.4v-48.91h68.187v-148.99h50.598v148.99h68.187v48.91h-186.97" fill="#fff"/>
			<path d="m502.6 1170c-110.51 0-214.52 59.01-271.46 154l43.04 25.79c48.64-81.16 134.04-129.61 228.42-129.61 94.379 0 179.77 48.45 228.42 129.61l43.035-25.79c-56.934-94.99-160.95-154-271.45-154" fill="#fff"/>
		</g>
	</g>
</svg>
